<svg width="0" height="0" class="hidden">
  <symbol fill="none" xmlns="http://www.w3.org/2000/svg" viewBox="0 0 26 26" id="cube">
    <path d="m18.73 14.53-4.457 2.97v4.579l7.89-5.26-3.434-2.289ZM16.433 13 13 10.71 9.566 13 13 15.289l3.434-2.29Zm6.751-1.44L21.025 13l2.16 1.44v-2.88Zm-1.022-2.38-7.89-5.26V8.5l4.456 2.97 3.434-2.29ZM7.27 11.47l4.456-2.97V3.92l-7.89 5.26 3.434 2.29Zm-3.434 5.35 7.89 5.259V17.5L7.27 14.53l-3.434 2.29Zm-1.022-2.38L4.975 13l-2.16-1.44v2.88ZM.269 9.18a1.273 1.273 0 0 1 .566-1.059L12.293.482a1.273 1.273 0 0 1 1.414 0l11.458 7.639a1.273 1.273 0 0 1 .567 1.06v7.638a1.272 1.272 0 0 1-.567 1.06l-11.458 7.638a1.273 1.273 0 0 1-1.414 0L.835 17.878A1.273 1.273 0 0 1 .27 16.82V9.18Z" fill="#000"></path>
  </symbol>
  <symbol fill="none" xmlns="http://www.w3.org/2000/svg" viewBox="0 0 16 16" id="instagram">
    <path d="M8 5.75a2.25 2.25 0 1 0 0 4.5 2.25 2.25 0 0 0 0-4.5Zm0-1.5a3.75 3.75 0 1 1 0 7.5 3.75 3.75 0 0 1 0-7.5Zm4.875-.188a.938.938 0 1 1-1.875 0 .938.938 0 0 1 1.875 0ZM8 2c-1.856 0-2.159.005-3.022.043-.588.028-.982.107-1.348.25-.326.125-.56.276-.81.527a2.168 2.168 0 0 0-.528.81c-.143.367-.221.761-.248 1.348C2.003 5.806 2 6.096 2 8c0 1.855.005 2.159.043 3.022.028.587.107.982.249 1.348.127.326.277.56.526.81.253.252.488.402.81.527.37.143.765.223 1.35.25C5.806 13.995 6.096 14 8 14c1.855 0 2.159-.005 3.022-.043.586-.028.982-.107 1.348-.249.324-.127.56-.277.81-.526.252-.253.403-.488.527-.81.143-.37.223-.765.25-1.35C13.995 10.194 14 9.904 14 8c0-1.856-.005-2.159-.043-3.022-.028-.586-.107-.982-.25-1.348a2.183 2.183 0 0 0-.527-.81 2.163 2.163 0 0 0-.81-.528c-.367-.143-.762-.221-1.348-.248C10.194 2.003 9.904 2 8 2ZM8 .5c2.038 0 2.292.007 3.091.045.8.037 1.343.163 1.822.349.495.19.912.448 1.329.864.38.375.676.829.864 1.33.185.477.312 1.022.349 1.82.035.8.045 1.054.045 3.092 0 2.038-.008 2.292-.045 3.091-.037.8-.164 1.343-.349 1.822-.188.5-.483.954-.864 1.329a3.687 3.687 0 0 1-1.33.864c-.477.185-1.022.312-1.82.349-.8.035-1.054.045-3.092.045-2.038 0-2.292-.008-3.091-.045-.8-.037-1.343-.164-1.821-.349a3.668 3.668 0 0 1-1.33-.864 3.678 3.678 0 0 1-.864-1.33c-.186-.477-.311-1.022-.349-1.82C.51 10.291.5 10.037.5 8c0-2.038.007-2.292.045-3.091.037-.8.163-1.343.349-1.821.187-.501.483-.955.864-1.33a3.673 3.673 0 0 1 1.33-.864C3.566.708 4.108.583 4.907.545 5.708.51 5.963.5 8 .5Z" fill="#000"></path>
  </symbol>
  <symbol fill="none" xmlns="http://www.w3.org/2000/svg" viewBox="0 0 13 12" id="linkedin">
    <path d="M2.67576 1.33393C2.67558 1.68753 2.53446 2.02658 2.28343 2.27649C2.03241 2.5264 1.69204 2.6667 1.33721 2.66652C0.98238 2.66634 0.64216 2.5257 0.39138 2.27554C0.14061 2.02539 -0.000179828 1.6862 1.72385e-07 1.33259C0.000180172 0.97899 0.1413 0.63994 0.39233 0.39003C0.64336 0.14012 0.98372 -0.000179827 1.33855 1.72987e-07C1.69338 0.000180173 2.0336 0.14081 2.28438 0.39097C2.53515 0.64113 2.67594 0.98032 2.67576 1.33393ZM2.7159 3.6538H0.0401403V12H2.7159V3.6538ZM6.9436 3.6538H4.2812V12H6.9168V7.6202C6.9168 5.1804 10.1077 4.9537 10.1077 7.6202V12H12.75V6.7136C12.75 2.60052 8.0273 2.75385 6.9168 4.7737L6.9436 3.6538Z" fill="black"></path>
  </symbol>
  <symbol fill="none" xmlns="http://www.w3.org/2000/svg" viewBox="0 0 10 10" id="vector">
    <path d="M8.058 3.025 1.483 9.6.403 8.52l6.574-6.575H1.183V.417h8.403v8.402H8.058V3.026Z" fill="#000"></path>
  </symbol>
  <symbol fill="none" xmlns="http://www.w3.org/2000/svg" viewBox="0 0 16 14" id="twitter">
    <path d="M15.622 2.242c-.573.253-1.18.42-1.802.494A3.147 3.147 0 0 0 15.2 1a6.268 6.268 0 0 1-1.992.761 3.136 3.136 0 0 0-5.344 2.86 8.906 8.906 0 0 1-6.465-3.277 3.136 3.136 0 0 0 .97 4.188A3.125 3.125 0 0 1 .95 5.14v.04a3.139 3.139 0 0 0 2.516 3.075 3.156 3.156 0 0 1-1.418.054 3.139 3.139 0 0 0 2.93 2.179 6.295 6.295 0 0 1-4.643 1.299 8.872 8.872 0 0 0 4.808 1.41c5.77 0 8.925-4.78 8.925-8.925 0-.135-.004-.272-.01-.405a6.372 6.372 0 0 0 1.566-1.624h-.001Z" fill="#000"></path>
  </symbol>
  <symbol fill="none" xmlns="http://www.w3.org/2000/svg" viewBox="0 0 27 25" id="pencil">
    <path d="M19.029.769 26.23 7.97a1.273 1.273 0 0 1 0 1.8l-9.904 9.904-2.699.9-1.801 1.8a1.273 1.273 0 0 1-1.8 0l-5.403-5.402a1.273 1.273 0 0 1 0-1.8l1.8-1.8.9-2.7L17.23.768a1.273 1.273 0 0 1 1.8 0Zm.9 4.501-8.102 8.103 1.8 1.8 8.102-8.102-1.8-1.8ZM4.174 19.224l3.601 3.602-1.8 1.8-5.402-1.8 3.6-3.602Z" fill="#000"></path>
  </symbol>
  <symbol fill="none" xmlns="http://www.w3.org/2000/svg" viewBox="0 0 24 24" id="window">
    <path d="M12 3.088v17.824h8.912V3.088H12ZM1.815.542h20.37a1.273 1.273 0 0 1 1.273 1.273v20.37a1.273 1.273 0 0 1-1.273 1.273H1.815a1.273 1.273 0 0 1-1.273-1.273V1.815A1.273 1.273 0 0 1 1.815.542Z" fill="#000"></path>
  </symbol>
</svg>